HIERARCHY
ROOT Pelvis
{
	OFFSET 0.000000 0.000000 0.000000
	CHANNELS 6 Xposition Yposition Zposition Zrotation Yrotation Xrotation 
	JOINT Left_hip
	{
		OFFSET 0.067986 -0.089946 -0.007639
		CHANNELS 3 Zrotation Yrotation Xrotation
		JOINT Left_knee
		{
			OFFSET 0.036308 -0.388288 -0.004016
			CHANNELS 3 Zrotation Yrotation Xrotation
			JOINT Left_ankle
			{
				OFFSET -0.012264 -0.413250 -0.042878
				CHANNELS 3 Zrotation Yrotation Xrotation
				JOINT Left_foot
				{
					OFFSET 0.024043 -0.058563 0.118570
					CHANNELS 3 Zrotation Yrotation Xrotation
					End Site
					{
						OFFSET 0.000000 0.000000 0.000000
					}
				}
			}
		}
	}
	JOINT Right_hip
	{
		OFFSET -0.065648 -0.089374 -0.003858
		CHANNELS 3 Zrotation Yrotation Xrotation
		JOINT Right_knee
		{
			OFFSET -0.042132 -0.395021 -0.006361
			CHANNELS 3 Zrotation Yrotation Xrotation
			JOINT Right_ankle
			{
				OFFSET 0.014805 -0.413264 -0.041054
				CHANNELS 3 Zrotation Yrotation Xrotation
				JOINT Right_foot
				{
					OFFSET -0.021758 -0.049013 0.121832
					CHANNELS 3 Zrotation Yrotation Xrotation
					End Site
					{
						OFFSET 0.000000 0.000000 0.000000
					}
				}
			}
		}
	}
	JOINT Spine1
	{
		OFFSET -0.002755 0.104406 -0.022277
		CHANNELS 3 Zrotation Yrotation Xrotation
		JOINT Spine2
		{
			OFFSET 0.004136 0.129393 -0.002186
			CHANNELS 3 Zrotation Yrotation Xrotation
			JOINT Spine3
			{
				OFFSET 0.001906 0.049304 0.025578
				CHANNELS 3 Zrotation Yrotation Xrotation
				JOINT Neck
				{
					OFFSET -0.004620 0.210958 -0.044063
					CHANNELS 3 Zrotation Yrotation Xrotation
					JOINT Head
					{
						OFFSET 0.003833 0.067393 0.052435
						CHANNELS 3 Zrotation Yrotation Xrotation
						End Site
						{
							OFFSET 0.000000 0.000000 0.000000
						}
					}
				}
				JOINT Left_collar
				{
					OFFSET 0.070771 0.116689 -0.037192
					CHANNELS 3 Zrotation Yrotation Xrotation
					JOINT Left_shoulder
					{
						OFFSET 0.080652 0.031596 -0.005617
						CHANNELS 3 Zrotation Yrotation Xrotation
						JOINT Left_elbow
						{
							OFFSET 0.262654 -0.015020 -0.027939
							CHANNELS 3 Zrotation Yrotation Xrotation
							JOINT Left_wrist
							{
								OFFSET 0.250438 0.010062 -0.000990
								CHANNELS 3 Zrotation Yrotation Xrotation
								JOINT Left_palm
								{
									OFFSET 0.081198 -0.010037 -0.013706
									CHANNELS 3 Zrotation Yrotation Xrotation
									End Site
									{
										OFFSET 0.000000 0.000000 0.000000
									}
								}
							}
						}
					}
				}
				JOINT Right_collar
				{
					OFFSET -0.072972 0.115556 -0.040762
					CHANNELS 3 Zrotation Yrotation Xrotation
					JOINT Right_shoulder
					{
						OFFSET -0.082917 0.031841 -0.006673
						CHANNELS 3 Zrotation Yrotation Xrotation
						JOINT Right_elbow
						{
							OFFSET -0.252882 -0.013790 -0.020410
							CHANNELS 3 Zrotation Yrotation Xrotation
							JOINT Right_wrist
							{
								OFFSET -0.255570 0.009163 -0.005138
								CHANNELS 3 Zrotation Yrotation Xrotation
								JOINT Right_palm
								{
									OFFSET -0.080804 -0.007282 -0.010415
									CHANNELS 3 Zrotation Yrotation Xrotation
									End Site
									{
										OFFSET 0.000000 0.000000 0.000000
									}
								}
							}
						}
					}
				}
			}
		}
	}
}
MOTION
Frames: 16
Frame Time: 0.100000
0.130411 0.127430 -0.270664 177.946155 20.977919 -2.677199 10.133497 4.065593 -44.350725 -9.976389 1.644087 39.634523 -3.907780 -2.077628 -5.843004 6.219703 17.087609 -11.255110 -6.930966 -2.938175 -47.483002 3.590509 -4.839478 44.806480 11.953228 -4.569546 -10.292340 -16.814755 0.575681 -6.132409 2.740304 -1.241813 44.692031 -1.509720 0.117029 -2.147216 2.319468 0.100353 -0.104507 -4.665850 4.541160 -21.212857 0.981942 -2.386296 -11.190061 -11.534782 -17.541690 -2.798882 -42.113987 -18.217501 5.996292 77.536721 -75.579264 -48.526987 21.549555 -10.129169 4.675894 -8.361712 -4.198707 -7.923033 5.396557 23.759285 -4.106552 38.901559 24.531782 4.196528 -81.855913 69.315615 -57.483067 -21.772650 13.965392 16.834953 11.594392 9.129087 -7.201776 
0.125884 0.088487 -0.234573 178.370050 20.894578 -5.821907 9.588799 3.500716 -31.305743 -8.781586 -1.309848 28.128832 -5.783381 -1.467196 -3.776631 6.745737 15.333196 -9.907918 -6.043853 -3.163428 -35.271918 3.896592 -4.102148 34.863419 11.562763 -4.507527 -9.380764 -15.236561 2.094847 -4.079164 3.383243 -1.235820 37.441255 -1.308975 -0.742576 -0.474498 2.309684 0.235557 -0.645970 -4.119912 4.694190 -19.092094 0.551772 -2.358833 -7.317521 -10.634573 -21.092287 -3.804122 -42.112688 -22.607012 7.575818 78.914786 -75.098224 -51.450735 20.845412 -11.850324 1.095503 -6.805348 -3.062366 -4.540285 4.873397 26.506186 -4.759204 36.872223 27.039027 4.420667 -67.481963 69.616596 -43.355852 -18.967357 14.647107 17.533514 9.342621 8.005505 -5.192663 
0.120190 0.060303 -0.193955 178.998813 20.188588 -8.598006 9.484328 3.262746 -19.948261 -7.474570 -3.241579 19.102799 -7.679729 -0.469054 -2.208465 8.543833 14.606865 -9.724806 -5.775922 -3.483307 -24.628551 4.943071 -3.085702 26.851300 10.995579 -4.405641 -9.426357 -13.836767 4.090695 -2.298678 3.533359 -1.024866 28.112780 -0.713773 -1.300773 1.209945 2.017635 -0.034533 -0.308648 -3.016881 5.836149 -14.038951 -0.785573 -2.214782 -1.360072 -10.211823 -21.115847 -4.213820 -43.713331 -26.532940 10.590796 72.019951 -75.331732 -51.210693 15.620620 -9.979301 -9.139618 -5.752742 -1.835631 -1.263599 5.733617 25.235216 -4.926187 39.099822 28.205890 8.829947 -59.296577 71.102731 -41.793775 -12.974239 10.648398 5.033868 7.911589 6.820007 -3.565115 
0.113875 0.041832 -0.154545 179.548402 19.700145 -11.475695 9.465635 2.911110 -10.033081 -6.080476 -5.037348 12.451892 -8.516570 0.347275 -1.560986 9.375610 14.930137 -10.104847 -5.656646 -3.384160 -15.191257 5.563151 -1.980402 20.937521 9.017641 -3.807920 -10.228933 -10.138141 3.437284 -0.573225 3.624846 -1.002346 20.620618 0.059462 -1.692909 3.420291 1.806832 -0.516256 -0.062452 -1.676260 6.433192 -8.421045 -2.473281 -1.258451 2.118659 -11.293231 -17.567074 -3.402198 -45.911720 -26.628118 13.263998 113.954675 -76.697033 -93.410249 13.473477 -9.768766 -16.593934 -5.804240 -1.047891 0.510222 7.195343 21.002982 -4.558105 41.587361 26.228946 13.166483 -100.329940 75.325454 -83.312972 -11.272227 9.946850 -4.804841 8.065764 6.319983 -2.533006 
0.110494 0.030929 -0.124660 179.979979 19.015166 -11.662703 9.777352 2.826920 -5.725540 -5.340398 -5.003722 9.313324 -8.627845 0.547744 -0.826977 8.956722 15.045680 -11.258956 -5.464788 -2.929503 -10.381922 5.716404 -1.762142 16.676031 6.369076 -1.911684 -10.799811 -5.359835 -0.088769 1.146126 3.870069 -1.332136 16.355804 0.566052 -1.241204 1.166966 1.886689 -1.288166 -0.932811 -0.131756 5.622789 -2.715812 -3.697401 0.388229 5.527836 -12.542917 -10.640992 -2.569591 -50.339487 -24.247760 16.529244 154.082065 -68.722818 -130.601133 12.608638 -10.270366 -24.228188 -5.421409 0.029977 2.342035 7.562734 14.875117 -5.040285 45.128309 24.861897 17.627669 -144.436445 70.491623 -125.247363 -10.651440 9.943651 -12.658613 7.257047 5.670580 -0.671033 
0.111269 0.025273 -0.105219 -179.210272 17.989285 -14.511373 10.387587 2.893235 -1.589749 -5.838902 -5.017113 10.541382 -10.093001 0.662585 -0.175016 10.421939 16.712144 -11.725400 -5.612522 -2.799697 -4.043598 6.127332 0.405254 13.389485 5.212435 -2.177022 -11.487615 -4.349203 0.668978 1.176138 4.058656 -1.209079 12.800168 0.567685 -1.701447 6.047708 1.394793 -1.113608 0.153652 0.797514 5.548032 -0.533506 -4.626754 0.570716 5.688065 -12.715731 -9.555283 -2.402936 -49.360208 -23.738798 15.714043 160.440365 -59.093888 -135.859064 13.208835 -8.928244 -27.352992 -5.804915 0.163306 2.982134 7.419322 15.284898 -5.299265 44.575446 26.458943 17.934727 -153.890967 62.906551 -134.313174 -11.472713 9.082573 -15.024969 8.221655 5.588356 -0.797435 
0.116500 0.023029 -0.094324 -178.834441 17.042682 -15.733121 11.485521 2.504225 -4.494830 -6.965431 -3.609962 19.393495 -10.932531 0.296101 1.707188 10.364346 17.912079 -13.981844 -5.537259 -3.222315 -0.765282 6.659546 1.533792 11.119825 3.552393 -0.908631 -11.459276 -2.712991 -0.959616 0.819845 4.309534 -0.398658 12.513702 0.533170 -1.667863 6.649624 1.346621 -0.854482 0.670496 0.807159 5.043107 1.877824 -4.712135 1.165131 6.206430 -11.775359 -7.860965 -2.631518 -51.178423 -23.554961 16.192119 164.255211 -53.603756 -138.051048 14.305659 -7.735730 -30.585156 -5.912984 0.462547 4.156371 6.244791 14.712850 -5.674704 46.745627 27.706430 19.043096 -158.933415 58.561334 -138.243501 -13.068184 8.102519 -17.249815 8.765058 5.611094 -0.640889 
0.120741 0.023188 -0.088459 -179.004848 17.231391 -17.170490 12.228821 1.596955 -10.434884 -7.403174 -1.257559 31.432679 -11.449932 0.386362 5.104385 9.778570 19.054020 -17.042434 -5.353238 -4.010250 1.602121 7.087616 1.956962 10.481561 1.205252 -0.055857 -11.767254 -0.629253 -2.884185 0.237190 4.749044 0.614350 13.779719 0.419421 -1.767663 7.018079 1.334821 -0.558881 1.385982 0.202685 4.582715 4.665887 -4.422943 2.145778 6.750729 -10.675259 -7.022858 -2.854610 -53.347204 -24.049026 16.612392 165.988209 -50.492960 -138.327175 14.480314 -6.595278 -33.234760 -5.579595 0.786871 5.757668 4.821517 14.561599 -5.800628 48.732991 28.779718 19.591578 -161.499414 56.001665 -139.213458 -13.772322 7.184484 -17.748143 8.728927 5.627813 -0.246983 
0.119404 0.021567 -0.081687 -179.152437 18.612144 -17.905732 11.424029 0.744459 -15.184087 -7.681779 0.580784 37.266149 -9.688080 -0.220206 4.476192 8.163855 20.003584 -17.807675 -5.388338 -4.671150 3.288715 6.727853 1.807387 10.143939 0.322960 -0.199729 -12.072443 0.418107 -3.457933 -0.341113 4.769366 1.669866 15.074649 0.190006 -1.630602 7.068126 1.145656 -0.202200 2.097687 -0.168947 4.856146 7.229895 -4.674007 3.049717 8.005229 -10.289067 -6.235942 -2.855539 -54.530354 -24.230071 16.609731 167.373031 -49.099105 -138.412845 14.149198 -6.140781 -33.724404 -5.167534 0.929519 6.625233 4.451766 14.289662 -5.570203 50.336417 29.108328 20.315742 -163.260575 54.857119 -139.946953 -13.619603 6.863902 -17.823543 8.606520 5.755789 0.079891 
0.113056 0.019892 -0.070835 -179.786228 21.128248 -17.700462 10.343338 0.771163 -17.944912 -7.875754 2.741574 32.347205 -8.425043 -0.577957 2.975588 8.077040 20.334289 -16.620372 -5.709774 -5.692418 4.513045 6.657548 0.607189 9.487059 0.573427 -0.406005 -12.785670 0.634697 -3.278217 -0.390753 4.738064 2.698217 15.526879 -0.166448 -1.240346 7.053529 0.959477 0.356445 2.660385 -0.467453 5.734744 9.044161 -5.090436 3.537934 9.098825 -9.762649 -5.324097 -3.225209 -55.294695 -24.107521 16.658276 167.595754 -48.126290 -138.478165 14.276379 -6.098955 -34.532068 -4.655793 1.027564 6.901443 3.894527 13.723528 -5.312568 51.201133 29.536404 20.679898 -164.122582 54.123550 -140.719553 -13.343544 7.197127 -18.279915 8.230885 5.716506 0.182301 
0.099181 0.019007 -0.054672 178.763902 24.848414 -17.353331 8.959953 1.514861 -18.409825 -7.452833 5.449037 20.429772 -7.783251 0.216005 2.525360 9.105743 20.136152 -14.396564 -5.815763 -6.974350 5.860162 6.619642 -1.896842 8.968693 0.534874 -0.800524 -13.990656 1.598830 -3.231468 0.362087 4.889843 3.335329 15.864064 -0.669693 -0.850764 6.740611 0.783047 0.947354 2.681838 -0.400533 6.371794 9.776427 -5.311432 3.429574 9.650846 -9.890454 -4.794061 -3.497128 -55.426735 -23.144764 16.896130 168.261585 -47.639252 -139.145318 14.301737 -6.727019 -34.252757 -4.197947 1.120912 6.042692 3.598632 13.650706 -4.988866 51.383095 30.056351 20.667801 -164.197834 53.617043 -141.130494 -13.418529 7.903677 -18.600516 7.702610 5.539629 -0.041392 
0.074616 0.019178 -0.029898 176.067158 29.531576 -18.383413 7.284496 2.909049 -16.620563 -5.782080 10.285069 10.922097 -5.577929 3.367423 0.402355 9.638280 19.693948 -11.489694 -5.077575 -8.233800 9.377658 6.140661 -4.410808 7.841914 -0.365642 -2.095745 -15.849845 3.607553 -3.597536 1.199323 4.972997 3.998870 15.379051 -0.697607 -0.768549 7.159705 0.967969 1.322889 2.925629 -0.166693 6.451049 10.152370 -5.535623 3.407305 9.577775 -10.218715 -4.903293 -3.556728 -55.750712 -22.346385 16.885147 168.814538 -48.119746 -139.808114 13.858545 -6.964466 -33.695386 -3.458943 1.120510 5.451516 3.709994 13.791146 -4.641952 51.450954 30.125333 20.514498 -163.937142 53.678803 -140.975074 -13.341380 8.333233 -18.496123 7.095396 5.394222 -0.467355 
0.036430 0.020830 0.002895 173.262144 33.450515 -19.579539 6.630182 3.582100 -14.459983 -5.358530 12.865701 9.715177 -3.974493 4.982696 -0.201811 9.080781 19.286553 -10.628153 -4.707895 -9.425812 12.646248 5.638960 -6.484973 8.925606 -1.690565 -3.482261 -18.194982 5.680386 -3.954096 1.282673 4.230883 4.863066 13.992157 -0.756491 -0.426091 6.974895 0.896743 1.648681 2.837977 0.531436 7.056263 10.682682 -5.671383 3.949867 10.489322 -10.536558 -4.189714 -3.575783 -55.309442 -21.710960 16.728305 169.804149 -48.304119 -141.017859 13.264554 -6.981221 -34.014344 -2.955934 1.228322 5.634554 4.693651 13.404267 -4.295289 52.320585 29.714370 21.238404 -164.308856 54.008726 -141.259502 -12.583201 8.293366 -18.934706 6.354011 5.214328 -0.134213 
-0.013209 0.016251 0.032216 171.818678 38.743689 -20.775480 4.862371 1.245181 -15.409653 -6.322410 9.870872 17.050473 -2.361512 3.437238 -0.731200 7.431644 20.553608 -12.905239 -6.675044 -10.194704 11.387349 3.752666 -7.916854 20.556081 0.671898 -6.021141 -17.489057 2.652101 -1.364657 -2.409337 2.436005 5.379626 13.685847 -1.414330 0.002935 6.570120 0.143488 1.555991 3.212726 0.774329 6.927143 10.356988 -5.677429 4.091072 11.402702 -10.076482 -3.727834 -3.464867 -54.976395 -22.497214 16.422032 170.705937 -48.476392 -142.248195 13.400927 -5.997987 -34.562545 -2.823885 0.994528 6.598933 4.841090 13.092878 -4.752412 53.728837 28.475239 22.326912 -164.122580 53.405897 -141.388080 -12.030869 7.684848 -17.549240 5.774386 5.492602 0.452410 
-0.068894 0.008112 0.055139 168.956792 43.951539 -24.368760 2.745919 0.669290 -10.877311 -7.984293 5.375025 18.600744 2.392640 2.695292 -4.649289 4.904733 22.174697 -14.443622 -10.277233 -9.972598 3.006089 2.781209 -7.175023 44.606875 8.129175 -6.740634 -3.367561 -4.746138 2.846674 -11.309603 1.478905 3.928797 13.363318 -1.084760 1.603849 7.242793 -0.464921 1.211209 3.868722 0.761656 5.461917 10.201783 -6.636987 5.175974 12.631411 -9.043125 -3.071683 -2.991005 -56.162321 -23.672248 16.106456 172.109620 -48.047505 -144.425574 13.421559 -4.124894 -34.333758 -5.044755 -0.343269 5.037549 3.888437 12.703422 -5.714938 54.339949 28.662693 23.390570 -163.400324 52.690522 -142.428042 -10.793289 6.818792 -13.491076 7.796169 6.516499 -1.070642 
-0.115901 -0.002953 0.074754 164.415723 50.764840 -29.640161 0.664581 0.010420 -4.660710 -8.435430 -0.939925 17.446929 5.043364 2.024635 -6.634860 2.598872 22.993705 -15.326085 -10.566773 -8.014702 -4.943072 2.040806 -5.514452 59.855684 10.767496 -9.070129 5.843239 -7.354440 4.679286 -15.868669 0.851018 1.622400 14.004288 -0.462750 2.155985 7.932669 -0.698711 0.463404 3.992803 1.051596 4.578122 10.572119 -7.522775 5.257187 12.795826 -8.125025 -3.403094 -2.487504 -55.693296 -25.286753 15.511976 172.322418 -47.319914 -144.934489 13.396919 -3.285448 -34.360076 -5.643481 -1.023292 4.289628 3.670701 12.970227 -6.820154 56.038150 28.891817 25.159141 -162.814596 51.132203 -142.173485 -10.310919 6.125045 -12.182396 8.538520 7.007947 -1.335416 
